# xmcd
#
# Track frame offsets:
# 150
# 19003
# 40537
# 62494
# 84546
# 105936
# 130168
# 152845
# 179809
# 202001
# 214982
# 241489
# 260157
# 283531
# 316431
#
# Disc length: 4772 seconds
#
# Revision: 1
# Processed by: cddbd v1.5PL3 Copyright (c) Steve Scherf et al.
# Submitted via: Easy CD Ripper v2.26
#
DISCID=d712a20f
DTITLE=Maná - Luna
DYEAR=2003
DGENRE=Blues
TTITLE0=Rayando el sol - Maná
TTITLE1=Cachito - Maná
TTITLE2=Vivir sin aire - Maná
TTITLE3=Te lloré un río - Maná
TTITLE4=Huele a tristeza - Maná
TTITLE5=No ha parado de llover - Maná
TTITLE6=El reloj cucú - Maná
TTITLE7=Hundido en un rincón - Maná
TTITLE8=Mis ojos - Maná
TTITLE9=Celoso (tema de Los Panchos) - Maná
TTITLE10=En el Muelle de San Blas - Maná
TTITLE11=Cómo dueles en los labios - Maná
TTITLE12=Cómo te extraño corazón - Maná
TTITLE13=Te llevaré al cielo - Maná
TTITLE14=Datos - Maná
EXTD=
EXTT0=
EXTT1=
EXTT2=
EXTT3=
EXTT4=
EXTT5=
EXTT6=
EXTT7=
EXTT8=
EXTT9=
EXTT10=
EXTT11=
EXTT12=
EXTT13=
EXTT14=
PLAYORDER=
